<svg width="237" height="253" viewBox="0 0 237 253" fill="none" xmlns="http://www.w3.org/2000/svg">
<path d="M206.003 245.657C211.135 253.479 223.262 255.44 230.585 249.633C237.904 243.826 238.8 231.531 232.399 224.714C226.528 218.464 216.469 217.16 211.41 210.233C204.182 200.335 211.478 186.717 218.317 176.544C225.156 166.37 231.302 151.717 222.695 142.996C219.388 139.647 214.519 138.137 211.41 134.601C206.544 129.065 207.558 120.386 210.743 113.734C213.932 107.082 218.919 101.374 221.678 94.531C229.435 75.2666 217.696 54.0715 205.904 36.9938C198.067 25.6431 189.662 14.1318 177.832 7.08206C158.946 -4.16924 133.545 -1.48545 115.71 11.3907C97.8759 24.2668 87.4746 45.9818 85.7068 67.9569C85.04 76.2415 85.4172 84.939 81.7825 92.4092C74.9207 106.505 55.1126 113.612 54.2782 129.275C53.7372 139.433 61.902 147.913 64.1994 157.818C66.6149 168.225 61.6467 179.927 52.4913 185.39C46.7344 188.823 39.5755 190.012 34.8016 194.726C28.1569 201.29 28.698 212.687 33.4833 220.719C38.2686 228.748 46.2849 234.199 54.0496 239.384H24.1984C16.4374 234.196 8.42123 228.748 3.63208 220.719C-1.15326 212.691 -1.69429 201.29 4.95033 194.726C9.72424 190.012 16.8832 188.827 22.6401 185.39C31.7955 179.927 36.7637 168.228 34.3482 157.818C32.0508 147.913 23.886 139.433 24.427 129.275C25.2614 113.612 45.0695 106.505 51.9313 92.4092C55.566 84.939 55.1888 76.2453 55.8555 67.9569C57.6272 45.9857 68.0284 24.2668 85.8592 11.3907C103.69 -1.48545 129.091 -4.16924 147.981 7.08589C159.811 14.1356 168.216 25.6469 176.053 36.9976C187.845 54.0753 199.583 75.2742 191.826 94.5349C189.072 101.378 184.081 107.086 180.892 113.738C177.703 120.39 176.689 129.069 181.558 134.605C184.667 138.141 189.536 139.651 192.844 143C201.45 151.717 195.305 166.374 188.466 176.547C181.627 186.721 174.331 200.338 181.558 210.236C186.618 217.164 196.676 218.467 202.548 224.718C208.948 231.531 208.053 243.83 200.734 249.637C193.415 255.444 181.284 253.483 176.152 245.661H206.003V245.657Z" fill="#0000FF"/>
<path d="M97.4411 240.488C107.176 241.069 117.215 241.612 126.42 238.378C133.087 236.034 138.936 231.829 144.449 227.398C157.997 216.518 170.806 202.777 173.66 185.6H143.809C140.955 202.777 128.15 216.518 114.597 227.398C109.081 231.829 103.236 236.034 96.5686 238.378C87.3637 241.612 77.3244 241.069 67.5898 240.488H97.4411Z" fill="#0000FF"/>
</svg>
