<?xml version="1.0" encoding="utf-8"?>
<!-- Generator: Adobe Illustrator 23.1.1, SVG Export Plug-In . SVG Version: 6.00 Build 0)  -->
<svg version="1.1" id="Layer_1" xmlns="http://www.w3.org/2000/svg" xmlns:xlink="http://www.w3.org/1999/xlink" x="0px" y="0px"
	 viewBox="0 0 111 78" style="enable-background:new 0 0 111 78;" xml:space="preserve">
<style type="text/css">
	.st0{clip-path:url(#SVGID_2_);}
	.st1{fill:#CEB4FF;}
	.st2{fill:#0000FF;}
</style>
<g>
	<defs>
		<rect id="SVGID_1_" width="111" height="78"/>
	</defs>
	<clipPath id="SVGID_2_">
		<use xlink:href="#SVGID_1_"  style="overflow:visible;"/>
	</clipPath>
	<g class="st0">
		<path class="st1" d="M83.1,75.7c1.6,2.4,5.3,3,7.6,1.2c2.3-1.8,2.5-5.6,0.6-7.7c-1.8-1.9-4.9-2.3-6.5-4.5c-2.2-3.1,0-7.2,2.1-10.4
			c2.1-3.1,4-7.7,1.4-10.3c-1-1-2.5-1.5-3.5-2.6c-1.5-1.7-1.2-4.4-0.2-6.4c1-2.1,2.5-3.8,3.4-5.9c2.4-5.9-1.2-12.5-4.9-17.7
			c-2.4-3.5-5-7-8.7-9.2c-5.8-3.5-13.7-2.6-19.2,1.3c-5.5,4-8.7,10.7-9.3,17.4c-0.2,2.6-0.1,5.2-1.2,7.5c-2.1,4.3-8.2,6.5-8.5,11.4
			c-0.2,3.1,2.4,5.7,3.1,8.8c0.7,3.2-0.8,6.8-3.6,8.5c-1.8,1.1-4,1.4-5.5,2.9c-2.1,2-1.9,5.5-0.4,8c1.5,2.5,4,4.2,6.4,5.8h-9.2
			c-2.4-1.6-4.9-3.3-6.4-5.8c-1.5-2.5-1.6-6,0.4-8c1.5-1.5,3.7-1.8,5.5-2.9c2.8-1.7,4.4-5.3,3.6-8.5c-0.7-3.1-3.2-5.7-3.1-8.8
			c0.3-4.8,6.4-7,8.5-11.4c1.1-2.3,1-5,1.2-7.5c0.5-6.8,3.8-13.5,9.3-17.4c5.5-4,13.4-4.8,19.2-1.3c3.7,2.2,6.2,5.7,8.7,9.2
			c3.6,5.3,7.3,11.8,4.9,17.7c-0.9,2.1-2.4,3.9-3.4,5.9s-1.3,4.7,0.2,6.4c1,1.1,2.5,1.6,3.5,2.6c2.7,2.7,0.8,7.2-1.4,10.3
			c-2.1,3.1-4.4,7.3-2.1,10.4c1.6,2.1,4.7,2.5,6.5,4.5c2,2.1,1.7,5.9-0.6,7.7c-2.3,1.8-6,1.2-7.6-1.2L83.1,75.7L83.1,75.7z"/>
		<path class="st1" d="M49.5,74.1c3,0.2,6.1,0.3,9-0.7c2.1-0.7,3.9-2,5.6-3.4c4.2-3.4,8.1-7.6,9-12.9h-9.2c-0.9,5.3-4.8,9.5-9,12.9
			c-1.7,1.4-3.5,2.7-5.6,3.4c-2.8,1-5.9,0.8-9,0.7H49.5z"/>
		<path class="st2" d="M11.8,31l-1.5-4.2c-0.9,0.5-2,0.8-3.3,0.8s-2.4-0.3-3.3-0.8L2.4,31H0l5.6-16h2.9l5.6,16H11.8z M9.6,24.8
			l-2.5-7.1l-2.5,7.1c0.7,0.3,1.6,0.4,2.5,0.4C8,25.2,8.8,25,9.6,24.8z"/>
		<path class="st2" d="M19.7,15h3.2l6,13.9V15h2.4v16h-3.8L22,18.5V31h-2.4L19.7,15L19.7,15z"/>
		<path class="st2" d="M42,17.4h-4.3V15h11.1v2.4h-4.3V31H42V17.4z"/>
		<path class="st2" d="M54,25.9v-5.9c0-3,2.4-5.4,5.4-5.4h1.5c3,0,5.4,2.4,5.4,5.4v5.9c0,3-2.4,5.4-5.4,5.4h-1.5
			C56.4,31.3,54,28.9,54,25.9z M60.9,28.9c1.6,0,3-1.3,3-3v-5.9c0-1.7-1.3-3-3-3h-1.5c-1.7,0-3,1.3-3,3v5.9c0,1.7,1.4,3,3,3H60.9z"
			/>
		<path class="st2" d="M72.4,15h3.2l6,13.9V15H84v16h-3.8l-5.5-12.6V31h-2.4L72.4,15L72.4,15z"/>
		<path class="st2" d="M90.5,15h2.3v15.9h-2.3V15z"/>
		<path class="st2" d="M98.7,25.9v-5.9c0-3,2.4-5.4,5.4-5.4h1.5c3,0,5.4,2.4,5.4,5.4v5.9c0,3-2.4,5.4-5.4,5.4h-1.5
			C101.1,31.3,98.7,28.9,98.7,25.9z M105.6,28.9c1.6,0,3-1.3,3-3v-5.9c0-1.7-1.3-3-3-3h-1.5c-1.7,0-3,1.3-3,3v5.9c0,1.7,1.4,3,3,3
			H105.6z"/>
		<path class="st2" d="M5.7,38.5H9l2.2,5.1c0.3,0,0.7,0.1,1,0.1s0.7,0,1-0.1l2.2-5.1h3.3v16h-2.3V41.7l-1.7,3.9
			c-0.7,0.2-1.5,0.4-2.4,0.4h-0.2c-0.9,0-1.7-0.2-2.4-0.4L8,41.7v12.8H5.7V38.5z"/>
		<path class="st2" d="M36.1,54.5l-1.5-4.2c-0.9,0.5-2,0.8-3.3,0.8c-1.3,0-2.4-0.3-3.3-0.8l-1.5,4.2h-2.4l5.6-16h2.9l5.6,16H36.1z
			 M33.9,48.2l-2.5-7.1l-2.5,7.1c0.7,0.3,1.6,0.4,2.5,0.4C32.3,48.6,33.1,48.5,33.9,48.2z"/>
		<path class="st2" d="M43.9,38.5h6.7c3.7,0,5.6,2.4,5.6,5.3c0,1.7-0.8,3.2-2,4.1c1.2,1,2,2.5,2,4.2v2.4h-2.4v-2.4
			c0-1.8-1.3-3-3.3-3h-4.3v5.3H44L43.9,38.5z M50.6,46.8c2,0,3.3-1.5,3.3-3c0-2-1.4-3-3.3-3h-4.3v6H50.6z"/>
		<path class="st2" d="M62.4,38.5h8.7c2,0,3.6,1.6,3.6,3.6v2c0,0.9-0.3,1.8-0.9,2.4c0.6,0.6,0.9,1.5,0.9,2.4v2c0,2-1.6,3.6-3.6,3.6
			h-8.7V38.5z M71.1,45.3c0.6,0,1.2-0.6,1.2-1.2v-2c0-0.7-0.6-1.2-1.2-1.2h-6.3v4.4L71.1,45.3L71.1,45.3z M71.1,52.1
			c0.6,0,1.2-0.5,1.2-1.2v-2c0-0.7-0.6-1.2-1.2-1.2h-6.3v4.4H71.1z"/>
		<path class="st2" d="M80.7,38.5h2.3v13.6h6.4v2.4h-8.8V38.5z"/>
		<path class="st2" d="M96,38.5h10.5v2.4h-8.1v4.4h7.7v2.4h-7.7v4.4h8.6v2.4H96V38.5z"/>
	</g>
</g>
</svg>
