<svg width="152" height="107" viewBox="0 0 152 107" fill="none" xmlns="http://www.w3.org/2000/svg">
<g clip-path="url(#clip0)">
<path d="M113.764 103.896C115.934 107.204 121.063 108.033 124.16 105.577C127.256 103.121 127.635 97.9211 124.927 95.0382C122.444 92.3945 118.19 91.8432 116.05 88.9133C112.994 84.7272 116.08 78.9678 118.972 74.6652C121.864 70.3626 124.463 64.1651 120.823 60.4769C119.425 59.0605 117.365 58.4218 116.05 56.9262C113.993 54.5849 114.421 50.9146 115.769 48.1012C117.117 45.2878 119.226 42.8737 120.393 39.9795C123.674 31.8319 118.709 22.8678 113.722 15.6451C110.407 10.8445 106.853 5.97606 101.85 2.9945C93.862 -1.76404 83.119 -0.628975 75.5762 4.81675C68.0334 10.2625 63.6344 19.4465 62.8867 28.7404C62.6048 32.2442 62.7643 35.9227 61.227 39.0821C58.325 45.0436 49.9475 48.0494 49.5946 54.6739C49.3658 58.97 52.8189 62.5563 53.7906 66.7456C54.8122 71.1468 52.711 76.0962 48.8389 78.4067C46.4041 79.8587 43.3763 80.3616 41.3573 82.3552C38.5471 85.1314 38.7759 89.9514 40.7998 93.3485C42.8236 96.744 46.214 99.0497 49.4979 101.242H36.8729C33.5905 99.0481 30.2002 96.744 28.1747 93.3485C26.1509 89.953 25.922 85.1314 28.7323 82.3552C30.7513 80.3616 33.7791 79.8603 36.2138 78.4067C40.0859 76.0962 42.1872 71.1485 41.1656 66.7456C40.1939 62.5563 36.7407 58.97 36.9696 54.6739C37.3224 48.0494 45.6999 45.0436 48.602 39.0821C50.1392 35.9227 49.9797 32.2458 50.2617 28.7404C51.011 19.4481 55.41 10.2625 62.9512 4.81675C70.4924 -0.628975 81.2353 -1.76404 89.2245 2.99612C94.2278 5.97768 97.7825 10.8462 101.097 15.6467C106.084 22.8694 111.049 31.8351 107.768 39.9811C106.603 42.8753 104.492 45.2894 103.143 48.1028C101.795 50.9162 101.366 54.5865 103.425 56.9278C104.74 58.4235 106.8 59.0621 108.198 60.4785C111.838 64.1651 109.239 70.3643 106.347 74.6668C103.454 78.9694 100.369 84.7288 103.425 88.915C105.565 91.8448 109.819 92.3961 112.302 95.0398C115.01 97.9211 114.631 103.123 111.535 105.579C108.44 108.035 103.309 107.205 101.139 103.897H113.764V103.896Z" fill="url(#paint0_linear)"/>
<path d="M67.8498 101.709C71.9669 101.955 76.2128 102.185 80.1059 100.817C82.9258 99.8258 85.3992 98.0472 87.7308 96.1732C93.4609 91.5715 98.8783 85.7604 100.085 78.4957H87.4601C86.2532 85.7604 80.8374 91.5715 75.1058 96.1732C72.7725 98.0472 70.3007 99.8258 67.4808 100.817C63.5878 102.185 59.3418 101.955 55.2248 101.709H67.8498Z" fill="url(#paint1_linear)"/>
<path d="M16.1475 42.5618L14.1462 36.8492C12.9634 37.4992 11.4133 37.8954 9.69397 37.8954C7.97464 37.8954 6.42451 37.4992 5.24177 36.8492L3.24045 42.5618H0L7.69266 20.5913H11.6937L19.3863 42.5618H16.1475ZM13.131 33.9663L9.69397 24.1824L6.25532 33.9663C7.27048 34.3333 8.45322 34.5322 9.69397 34.5322C10.9331 34.5306 12.1175 34.3333 13.131 33.9663Z" fill="white"/>
<path d="M26.9111 20.6187H31.3359L39.5652 39.648V20.6187H42.8056V42.5891H37.6203L30.1532 25.3125V42.5891H26.9127V20.6187H26.9111Z" fill="white"/>
<path d="M57.5709 23.8702H51.625V20.6187H66.7573V23.8702H60.8114V42.5891H57.5709V23.8702Z" fill="white"/>
<path d="M73.8857 35.5491V27.5179C73.8857 23.4175 77.2116 20.0818 81.2964 20.0818H83.3251C87.4115 20.0818 90.7358 23.4191 90.7358 27.5179V35.5491C90.7358 39.6495 87.4115 42.9852 83.3251 42.9852H81.2964C77.2116 42.9852 73.8857 39.6495 73.8857 35.5491ZM83.3267 39.7061C85.581 39.7061 87.4696 37.8677 87.4696 35.5491V27.5179C87.4696 25.2268 85.6374 23.3609 83.3267 23.3609H81.298C79.0147 23.3609 77.1552 25.1993 77.1552 27.5179V35.5491C77.1552 37.9243 79.1001 39.7061 81.298 39.7061H83.3267Z" fill="white"/>
<path d="M99.0791 20.6187H103.504L111.733 39.648V20.6187H114.974V42.5891H109.788L102.321 25.3125V42.5891H99.0807V20.6187H99.0791Z" fill="white"/>
<path d="M123.877 20.6187H127.09V42.4484H123.877V20.6187Z" fill="white"/>
<path d="M135.148 35.5491V27.5179C135.148 23.4175 138.473 20.0818 142.559 20.0818H144.588C148.674 20.0818 151.998 23.4191 151.998 27.5179V35.5491C151.998 39.6495 148.673 42.9852 144.588 42.9852H142.559C138.474 42.9852 135.148 39.6495 135.148 35.5491ZM144.589 39.7061C146.844 39.7061 148.732 37.8677 148.732 35.5491V27.5179C148.732 25.2268 146.9 23.3609 144.589 23.3609H142.561C140.279 23.3609 138.418 25.1993 138.418 27.5179V35.5491C138.418 37.9243 140.363 39.7061 142.561 39.7061H144.589Z" fill="white"/>
<path d="M7.80566 52.8081H12.3433L15.3871 59.7931C15.8383 59.8497 16.2895 59.8772 16.7681 59.8772C17.2466 59.8772 17.6978 59.8497 18.149 59.7931L21.1929 52.8081H25.7305V74.7785H22.5174V57.2481L20.1503 62.6486C19.1916 62.9881 18.0652 63.2145 16.8809 63.2145H16.6553C15.4725 63.2145 14.3446 62.9881 13.3858 62.6486L11.0187 57.2481V74.7802H7.80566V52.8081Z" fill="white"/>
<path d="M49.3994 74.751L47.3981 69.0385C46.2154 69.6885 44.6653 70.0846 42.9459 70.0846C41.2266 70.0846 39.6765 69.6885 38.4937 69.0385L36.4924 74.751H33.252L40.9446 52.7805H44.9456L52.6383 74.751H49.3994ZM46.383 66.1539L42.9459 56.37L39.5073 66.1539C40.5224 66.5209 41.7052 66.7198 42.9459 66.7198C44.1851 66.7198 45.3694 66.5226 46.383 66.1539Z" fill="white"/>
<path d="M60.1631 52.8081H69.2931C74.3366 52.8081 77.0147 56.1454 77.0147 60.131C77.0147 62.4222 75.9722 64.4579 74.3382 65.8145C76.0012 67.171 77.0711 69.2358 77.0711 71.5544V74.7785H73.8017V71.5544C73.8017 69.0951 71.9985 67.454 69.2641 67.454H63.4019V74.7769H60.2179L60.1631 52.8081ZM69.2931 64.2315C71.9985 64.2315 73.7453 62.1958 73.7453 60.131C73.7179 57.3597 71.8567 56.0306 69.2931 56.0306H63.4035V64.2315H69.2931Z" fill="white"/>
<path d="M85.4688 52.8081H97.388C100.093 52.8081 102.319 55.0427 102.319 57.7558V60.4415C102.319 61.714 101.84 62.9008 101.023 63.7788C101.84 64.6551 102.319 65.8144 102.319 67.1161V69.8308C102.319 72.5456 100.092 74.7785 97.388 74.7785H85.4688V52.8081ZM97.3896 62.1117C98.263 62.1117 99.0236 61.3486 99.0236 60.4431V57.7558C99.0236 56.8504 98.263 56.1163 97.3896 56.1163H88.7108V62.1101H97.3896V62.1117ZM97.3896 71.4704C98.263 71.4704 99.0236 70.7347 99.0236 69.8308V67.1161C99.0236 66.2106 98.263 65.4474 97.3896 65.4474H88.7108V71.4704H97.3896Z" fill="white"/>
<path d="M110.548 52.8081H113.761V71.527H122.553V74.7785H110.548V52.8081Z" fill="white"/>
<path d="M131.457 52.8081H145.829V56.0597H134.67V62.1101H145.237V65.3617H134.67V71.4121H146.393V74.6637H131.457V52.8081Z" fill="white"/>
</g>
<defs>
<linearGradient id="paint0_linear" x1="76.6899" y1="-0.000732422" x2="76.6899" y2="107.001" gradientUnits="userSpaceOnUse">
<stop stop-color="#FF8F66"/>
<stop offset="0.229167" stop-color="#0000FF"/>
<stop offset="0.489583" stop-color="#CEB4FF"/>
<stop offset="0.666667" stop-color="#0000FF"/>
<stop offset="0.833333" stop-color="#FF8F66"/>
<stop offset="0.963542" stop-color="#CEB4FF"/>
</linearGradient>
<linearGradient id="paint1_linear" x1="77.655" y1="78.4957" x2="77.655" y2="101.896" gradientUnits="userSpaceOnUse">
<stop stop-color="#FF8F66"/>
<stop offset="0.229167" stop-color="#0000FF"/>
<stop offset="0.489583" stop-color="#CEB4FF"/>
<stop offset="0.666667" stop-color="#0000FF"/>
<stop offset="0.833333" stop-color="#FF8F66"/>
<stop offset="0.963542" stop-color="#CEB4FF"/>
</linearGradient>
<clipPath id="clip0">
<rect width="152" height="107" fill="white"/>
</clipPath>
</defs>
</svg>