<svg width="175" height="189" viewBox="0 0 175 189" fill="none" xmlns="http://www.w3.org/2000/svg">
<path d="M152.339 182.575C156.123 188.356 165.065 189.806 170.464 185.513C175.861 181.221 176.521 172.133 171.801 167.095C167.472 162.475 160.056 161.511 156.325 156.391C150.996 149.075 156.375 139.009 161.418 131.49C166.461 123.97 170.992 113.139 164.646 106.693C162.208 104.218 158.617 103.102 156.325 100.488C152.737 96.3962 153.485 89.9816 155.833 85.0647C158.185 80.1478 161.862 75.9289 163.896 70.8707C169.616 56.6315 160.96 40.9653 152.266 28.3425C146.487 19.9527 140.29 11.4442 131.567 6.23344C117.641 -2.08289 98.9115 -0.0991774 85.7613 9.41811C72.611 18.9354 64.9416 34.9859 63.6381 51.2286C63.1465 57.3521 63.4246 63.7808 60.7446 69.3024C55.685 79.7211 41.0796 84.9743 40.4643 96.5516C40.0654 104.06 46.0857 110.327 47.7797 117.649C49.5608 125.341 45.8975 133.991 39.1468 138.029C34.9019 140.566 29.6233 141.445 26.1033 144.929C21.2039 149.781 21.6028 158.205 25.1312 164.142C28.6597 170.076 34.5704 174.106 40.2958 177.937H18.285C12.5625 174.103 6.65176 170.076 3.12049 164.142C-0.407975 158.208 -0.806896 149.781 4.0925 144.929C7.61254 141.445 12.8912 140.569 17.136 138.029C23.8867 133.991 27.55 125.344 25.769 117.649C24.075 110.327 18.0547 104.06 18.4536 96.5516C19.0688 84.9743 33.6743 79.7211 38.7338 69.3024C41.4139 63.7808 41.1358 57.3549 41.6274 51.2286C42.9337 34.9888 50.6031 18.9354 63.7505 9.41811C76.898 -0.0991774 95.6275 -2.08289 109.556 6.23626C118.279 11.447 124.476 19.9555 130.255 28.3453C138.949 40.9681 147.605 56.6372 141.885 70.8736C139.854 75.9317 136.174 80.1507 133.823 85.0675C131.471 89.9844 130.724 96.399 134.314 100.491C136.607 103.105 140.197 104.221 142.635 106.696C148.981 113.139 144.45 123.973 139.407 131.493C134.365 139.012 128.985 149.078 134.314 156.393C138.045 161.514 145.461 162.477 149.791 167.098C154.51 172.133 153.85 181.224 148.453 185.516C143.057 189.809 134.112 188.359 130.328 182.577H152.339V182.575Z" fill="#CEB4FF"/>
<path d="M72.291 178.754C79.4688 179.184 86.8712 179.585 93.6585 177.194C98.5747 175.462 102.887 172.354 106.952 169.078C116.942 161.036 126.387 150.88 128.491 138.184H106.48C104.376 150.88 94.9339 161.036 84.9412 169.078C80.8734 172.354 76.564 175.462 71.6477 177.194C64.8605 179.585 57.458 179.184 50.2803 178.754H72.291Z" fill="#CEB4FF"/>
</svg>