<svg width="67" height="12" viewBox="0 0 67 12" fill="none" xmlns="http://www.w3.org/2000/svg">
<mask id="path-1-inside-1" fill="white">
<path fill-rule="evenodd" clip-rule="evenodd" d="M61.9887 10.9447L66.7795 6.11954C67.0735 5.82345 67.0735 5.34338 66.7795 5.04729L61.9887 0.222152C61.6947 -0.0739422 61.218 -0.0739422 60.924 0.222152C60.63 0.518247 60.63 0.998311 60.924 1.29441L64.4297 4.82522H0V6.34161H64.4297L60.924 9.87242C60.63 10.1685 60.63 10.6486 60.924 10.9447C61.218 11.2408 61.6947 11.2408 61.9887 10.9447Z"/>
</mask>
<path fill-rule="evenodd" clip-rule="evenodd" d="M61.9887 10.9447L66.7795 6.11954C67.0735 5.82345 67.0735 5.34338 66.7795 5.04729L61.9887 0.222152C61.6947 -0.0739422 61.218 -0.0739422 60.924 0.222152C60.63 0.518247 60.63 0.998311 60.924 1.29441L64.4297 4.82522H0V6.34161H64.4297L60.924 9.87242C60.63 10.1685 60.63 10.6486 60.924 10.9447C61.218 11.2408 61.6947 11.2408 61.9887 10.9447Z" fill="#0E0E0E"/>
<path d="M66.7795 6.11954L63.941 3.30122L63.941 3.30121L66.7795 6.11954ZM61.9887 10.9447L64.8272 13.763L64.8272 13.763L61.9887 10.9447ZM66.7795 5.04729L63.941 7.86562L63.941 7.86561L66.7795 5.04729ZM61.9887 0.222152L64.8272 -2.59618L64.8272 -2.59617L61.9887 0.222152ZM60.924 1.29441L63.7625 -1.52392L63.7625 -1.52392L60.924 1.29441ZM64.4297 4.82522L67.2682 2.00689L74.0381 8.82522H64.4297V4.82522ZM0 4.82522H-4V0.825218H0V4.82522ZM0 6.34161V10.3416H-4V6.34161H0ZM64.4297 6.34161V2.34161H74.0381L67.2682 9.15993L64.4297 6.34161ZM60.924 9.87242L63.7625 12.6907L63.7625 12.6908L60.924 9.87242ZM69.618 8.93786L64.8272 13.763L59.1502 8.12635L63.941 3.30122L69.618 8.93786ZM69.618 2.22896C71.4607 4.08481 71.4607 7.08202 69.618 8.93787L63.941 3.30121C62.6863 4.56488 62.6863 6.60195 63.941 7.86562L69.618 2.22896ZM64.8272 -2.59617L69.618 2.22897L63.941 7.86561L59.1502 3.04048L64.8272 -2.59617ZM58.0855 -2.59618C59.9439 -4.46783 62.9688 -4.46783 64.8272 -2.59618L59.1502 3.04048C60.4206 4.31995 62.4921 4.31995 63.7625 3.04048L58.0855 -2.59618ZM58.0855 4.11273C56.2429 2.25688 56.2429 -0.740323 58.0855 -2.59618L63.7625 3.04048C65.0172 1.77682 65.0172 -0.260259 63.7625 -1.52392L58.0855 4.11273ZM61.5913 7.64354L58.0855 4.11273L63.7625 -1.52392L67.2682 2.00689L61.5913 7.64354ZM0 0.825218H64.4297V8.82522H0V0.825218ZM-4 6.34161V4.82522H4V6.34161H-4ZM64.4297 10.3416H0V2.34161H64.4297V10.3416ZM58.0855 7.0541L61.5913 3.52329L67.2682 9.15993L63.7625 12.6907L58.0855 7.0541ZM58.0855 13.763C56.2429 11.9072 56.2429 8.90995 58.0855 7.0541L63.7625 12.6908C65.0172 11.4271 65.0172 9.39001 63.7625 8.12635L58.0855 13.763ZM64.8272 13.763C62.9688 15.6347 59.9439 15.6347 58.0855 13.763L63.7625 8.12635C62.4921 6.84688 60.4206 6.84688 59.1502 8.12635L64.8272 13.763Z" fill="#0E0E0E" mask="url(#path-1-inside-1)"/>
</svg>