<svg width="141" height="150" viewBox="0 0 141 150" fill="none" xmlns="http://www.w3.org/2000/svg">
<path d="M122.136 145.647C125.179 150.284 132.369 151.447 136.711 148.004C141.05 144.561 141.581 137.271 137.786 133.23C134.305 129.524 128.341 128.751 125.342 124.644C121.057 118.775 125.382 110.702 129.437 104.67C133.492 98.6386 137.135 89.9505 132.032 84.7803C130.072 82.7947 127.185 81.8994 125.342 79.8028C122.457 76.5207 123.058 71.3754 124.946 67.4314C126.837 63.4875 129.794 60.1034 131.429 56.0461C136.028 44.6245 129.069 32.0582 122.078 21.9331C117.431 15.2034 112.448 8.37854 105.434 4.19885C94.2368 -2.47188 79.1768 -0.880699 68.603 6.75336C58.0292 14.3874 51.8624 27.262 50.8143 40.2906C50.419 45.2024 50.6426 50.3591 48.4876 54.7881C44.4194 63.1452 32.6754 67.3589 32.1808 76.6453C31.86 82.6678 36.7008 87.6952 38.0629 93.5681C39.495 99.7379 36.5494 106.676 31.1213 109.915C27.7082 111.951 23.4637 112.656 20.6333 115.45C16.6938 119.342 17.0146 126.099 19.8518 130.861C22.6889 135.621 27.4416 138.853 32.0452 141.927H14.3469C9.74551 138.851 4.99282 135.621 2.15341 130.861C-0.683754 126.101 -1.00452 119.342 2.93498 115.45C5.76536 112.656 10.0098 111.953 13.423 109.915C18.8511 106.676 21.7967 99.7402 20.3645 93.5681C19.0024 87.6952 14.1616 82.6678 14.4824 76.6453C14.9771 67.3589 26.721 63.1452 30.7893 54.7881C32.9443 50.3591 32.7206 45.2047 33.1159 40.2906C34.1663 27.2642 40.3331 14.3874 50.9046 6.75336C61.4762 -0.880699 76.5362 -2.47188 87.7357 4.20112C94.7496 8.38081 99.7327 15.2057 104.379 21.9353C111.37 32.0604 118.33 44.629 113.731 56.0483C112.098 60.1056 109.139 63.4897 107.248 67.4337C105.357 71.3777 104.756 76.5229 107.643 79.805C109.487 81.9017 112.373 82.797 114.334 84.7826C119.437 89.9505 115.793 98.6409 111.739 104.672C107.684 110.704 103.358 118.778 107.643 124.646C110.643 128.753 116.607 129.526 120.087 133.232C123.882 137.271 123.352 144.563 119.012 148.006C114.673 151.449 107.481 150.286 104.438 145.649H122.136V145.647Z" fill="url(#paint0_linear)"/>
<path d="M57.7716 142.582C63.543 142.927 69.4952 143.248 74.9527 141.331C78.9057 139.941 82.3731 137.448 85.6417 134.821C93.6743 128.37 101.269 120.224 102.961 110.04H85.2622C83.5703 120.224 75.9782 128.37 67.9434 134.821C64.6725 137.448 61.2074 139.941 57.2543 141.331C51.7968 143.248 45.8447 142.927 40.0732 142.582H57.7716Z" fill="url(#paint1_linear)"/>
<defs>
<linearGradient id="paint0_linear" x1="70.1641" y1="0" x2="70.1641" y2="150" gradientUnits="userSpaceOnUse">
<stop stop-color="#FF8F66"/>
<stop offset="0.229167" stop-color="#0000FF"/>
<stop offset="0.489583" stop-color="#CEB4FF"/>
<stop offset="0.666667" stop-color="#0000FF"/>
<stop offset="0.833333" stop-color="#FF8F66"/>
<stop offset="0.963542" stop-color="#CEB4FF"/>
</linearGradient>
<linearGradient id="paint1_linear" x1="71.5169" y1="110.04" x2="71.5169" y2="142.843" gradientUnits="userSpaceOnUse">
<stop stop-color="#FF8F66"/>
<stop offset="0.229167" stop-color="#0000FF"/>
<stop offset="0.489583" stop-color="#CEB4FF"/>
<stop offset="0.666667" stop-color="#0000FF"/>
<stop offset="0.833333" stop-color="#FF8F66"/>
<stop offset="0.963542" stop-color="#CEB4FF"/>
</linearGradient>
</defs>
</svg>
