<svg width="32" height="32" viewBox="0 0 32 32" fill="none" xmlns="http://www.w3.org/2000/svg">
<circle cx="16" cy="16" r="15.5" stroke="#0a0a0a" />
<path fill="#0a0a0a" d="M18.2666 20.7432L18.0732 21.5342C17.4932 21.7627 17.0303 21.9355 16.6846 22.0527C16.3389 22.1758 15.9375 22.2373 15.4805 22.2373C14.7773 22.2373 14.2295 22.0674 13.8369 21.7275C13.4502 21.3818 13.2568 20.9453 13.2568 20.418C13.2568 20.2129 13.2715 20.0049 13.3008 19.7939C13.3301 19.5771 13.377 19.334 13.4414 19.0645L14.1621 16.498C14.2266 16.252 14.2793 16.0205 14.3203 15.8037C14.3672 15.5811 14.3906 15.3789 14.3906 15.1973C14.3906 14.8691 14.3232 14.6406 14.1885 14.5117C14.0537 14.3828 13.7959 14.3184 13.415 14.3184C13.2275 14.3184 13.0342 14.3477 12.835 14.4062C12.6416 14.4648 12.4746 14.5205 12.334 14.5732L12.5273 13.7822C13.002 13.5889 13.4561 13.4248 13.8896 13.29C14.3232 13.1494 14.7334 13.0791 15.1201 13.0791C15.8174 13.0791 16.3535 13.249 16.7285 13.5889C17.1094 13.9229 17.2998 14.3594 17.2998 14.8984C17.2998 15.0098 17.2852 15.2061 17.2559 15.4873C17.2324 15.7686 17.1855 16.0264 17.1152 16.2607L16.3945 18.8184C16.3359 19.0234 16.2832 19.2578 16.2363 19.5215C16.1895 19.7852 16.166 19.9844 16.166 20.1191C16.166 20.459 16.2422 20.6904 16.3945 20.8135C16.5469 20.9365 16.8105 20.998 17.1855 20.998C17.3613 20.998 17.5605 20.9688 17.7832 20.9102C18.0059 20.8457 18.167 20.79 18.2666 20.7432ZM18.4512 10.0117C18.4512 10.457 18.2812 10.8379 17.9414 11.1543C17.6074 11.4648 17.2031 11.6201 16.7285 11.6201C16.2539 11.6201 15.8467 11.4648 15.5068 11.1543C15.167 10.8379 14.9971 10.457 14.9971 10.0117C14.9971 9.56641 15.167 9.18555 15.5068 8.86914C15.8467 8.55273 16.2539 8.39453 16.7285 8.39453C17.2031 8.39453 17.6074 8.55273 17.9414 8.86914C18.2812 9.18555 18.4512 9.56641 18.4512 10.0117Z" />
</svg>