<?xml version="1.0" standalone="no"?>
<!DOCTYPE svg PUBLIC "-//W3C//DTD SVG 20010904//EN"
 "http://www.w3.org/TR/2001/REC-SVG-20010904/DTD/svg10.dtd">
<svg version="1.0" xmlns="http://www.w3.org/2000/svg"
 width="1040.000000pt" height="1040.000000pt" viewBox="0 0 1040.000000 1040.000000"
 preserveAspectRatio="xMidYMid meet">
<metadata>
Created by potrace 1.11, written by Peter Selinger 2001-2013
</metadata>
<g transform="translate(0.000000,1040.000000) scale(0.100000,-0.100000)"
fill="#000000" stroke="none">
<path d="M5118 10395 c-2 -2 -33 -6 -68 -9 -36 -3 -74 -7 -85 -9 -19 -4 -117
-20 -140 -22 -5 -1 -28 -7 -50 -13 -22 -6 -55 -14 -74 -17 -19 -3 -37 -8 -41
-10 -3 -2 -17 -6 -31 -9 -28 -5 -198 -63 -279 -96 -72 -29 -231 -108 -322
-161 -64 -38 -234 -153 -248 -168 -3 -3 -27 -24 -55 -46 -101 -80 -241 -216
-331 -321 -27 -32 -54 -62 -59 -68 -6 -6 -39 -49 -73 -96 -34 -47 -66 -89 -70
-95 -121 -156 -317 -549 -400 -800 -28 -84 -72 -231 -77 -253 -2 -11 -8 -36
-13 -56 -6 -20 -8 -36 -5 -36 3 0 1 -6 -4 -12 -6 -7 -9 -23 -8 -35 1 -13 -1
-23 -5 -23 -4 0 -7 -6 -7 -12 0 -13 -7 -54 -19 -113 -5 -30 -10 -65 -20 -140
-9 -77 -13 -121 -19 -200 -3 -44 -7 -111 -10 -150 -3 -38 -7 -106 -10 -150 -5
-89 -15 -208 -20 -233 -1 -9 -6 -39 -9 -67 -4 -27 -9 -58 -12 -67 -5 -17 -11
-42 -20 -88 -8 -38 -56 -174 -66 -185 -4 -5 -8 -17 -8 -27 0 -10 -3 -18 -8
-18 -4 0 -13 -12 -19 -27 -20 -43 -103 -166 -153 -225 -59 -70 -221 -231 -345
-343 -54 -49 -119 -109 -143 -133 -24 -23 -45 -42 -47 -42 -4 0 -70 -69 -153
-158 -128 -139 -234 -338 -258 -485 -23 -143 2 -341 63 -487 3 -8 7 -17 8 -20
2 -11 124 -265 231 -483 13 -26 21 -47 17 -47 -3 0 -1 -6 5 -12 19 -24 73
-199 88 -283 9 -54 10 -228 1 -294 -9 -66 -39 -178 -67 -251 -11 -30 -23 -63
-27 -72 -3 -10 -9 -18 -13 -18 -5 0 -11 -14 -15 -30 -4 -17 -11 -30 -16 -30
-5 0 -9 -6 -9 -13 0 -7 -9 -23 -20 -35 -11 -12 -20 -24 -20 -28 0 -9 -65 -88
-114 -139 -44 -44 -122 -109 -171 -140 -43 -28 -158 -85 -172 -85 -6 0 -13 -3
-15 -7 -1 -5 -41 -23 -88 -42 -47 -19 -116 -49 -155 -67 -38 -17 -80 -34 -92
-38 -13 -4 -23 -12 -23 -17 0 -5 -6 -9 -14 -9 -35 0 -190 -124 -254 -204 -26
-33 -70 -115 -65 -120 4 -3 2 -6 -4 -6 -9 0 -27 -45 -21 -52 1 -2 -4 -12 -10
-24 -11 -20 -15 -37 -30 -114 -13 -67 -6 -282 11 -358 88 -375 326 -657 858
-1016 113 -76 118 -78 168 -75 28 2 51 1 51 -3 0 -5 23 -4 40 2 3 1 10 1 15 0
12 -2 156 -2 170 0 14 3 75 1 113 -3 17 -2 32 0 32 5 0 4 10 4 23 -1 12 -5 32
-5 45 0 13 5 21 5 18 1 -3 -5 15 -6 39 -2 24 4 50 3 57 -1 6 -4 20 -3 29 2 10
5 20 5 23 1 3 -5 26 -6 50 -2 25 4 51 3 58 -1 6 -4 20 -3 29 2 10 5 20 5 23 0
3 -4 23 -5 45 -1 22 4 45 4 52 -1 7 -4 23 -3 36 2 13 5 22 6 20 1 -4 -5 81 -6
148 0 6 0 16 -1 24 -3 7 -2 16 2 19 10 2 8 0 11 -6 7 -6 -3 -12 -3 -14 1 -3 9
-124 93 -133 93 -3 0 -14 8 -24 18 -32 29 -50 42 -56 42 -10 0 -192 143 -274
215 -115 101 -274 288 -318 375 -10 19 -20 37 -23 40 -25 22 -103 238 -114
316 -4 22 -9 51 -11 64 -6 26 -6 196 -1 240 6 50 44 189 57 205 4 6 8 15 9 20
1 6 15 34 32 64 64 112 204 227 362 300 59 27 102 45 251 106 11 5 23 7 28 7
4 -1 7 2 7 8 0 5 5 10 11 10 15 0 143 63 147 72 2 4 8 8 14 8 32 0 203 146
268 230 41 51 110 155 110 165 0 3 8 17 17 32 10 14 18 31 20 37 1 6 14 43 29
81 89 235 89 514 -1 729 -8 19 -11 36 -8 40 4 3 1 6 -5 6 -7 0 -12 9 -12 19 0
11 -5 23 -10 26 -6 4 -8 11 -5 16 4 5 1 9 -6 9 -7 0 -10 3 -7 6 3 3 -34 86
-83 185 -109 219 -149 306 -149 322 0 7 -5 18 -12 25 -7 7 -9 12 -5 12 4 0 1
12 -6 28 -14 27 -30 84 -44 159 -10 48 -9 235 1 286 9 49 37 129 67 192 28 62
128 215 140 215 5 0 9 4 9 10 0 5 15 26 33 45 42 48 198 205 202 205 2 0 25
21 53 48 27 26 79 74 116 107 143 128 288 277 358 367 31 39 128 184 128 191
0 3 12 31 27 63 15 33 27 61 28 64 1 3 4 12 7 20 27 73 63 246 74 350 2 25 6
65 9 90 3 25 8 95 11 155 6 132 12 222 18 290 3 28 8 77 11 110 9 104 16 145
25 171 7 18 7 23 -2 18 -7 -5 -8 -3 -3 6 7 12 14 42 17 78 1 6 5 12 9 12 5 0
6 6 4 13 -4 9 51 243 78 332 19 61 49 150 64 190 22 56 30 77 32 87 8 34 138
304 190 393 32 57 147 238 163 260 16 19 63 83 83 111 11 15 25 32 30 38 6 6
32 38 60 71 54 65 228 241 286 290 99 83 130 107 180 141 30 21 56 41 57 46 2
4 8 8 14 8 5 0 24 11 42 25 18 14 38 25 44 25 7 0 12 5 12 11 0 5 5 7 10 4 6
-3 10 -2 10 3 0 7 261 144 274 143 3 0 32 11 63 26 50 22 156 60 188 68 6 1
17 5 25 8 8 4 26 8 39 10 28 4 42 27 17 27 -24 0 -30 1 -46 10 -9 5 -34 11
-56 14 -22 4 -51 9 -64 11 -14 3 -43 7 -65 10 -22 3 -56 8 -75 11 -42 7 -436
14 -442 9z"/>
<path d="M6359 10396 c-2 -3 -39 -7 -81 -9 -42 -3 -80 -7 -84 -10 -5 -2 -34
-8 -64 -12 -74 -10 -95 -13 -95 -15 0 -2 -35 -10 -62 -15 -11 -1 -32 -7 -45
-11 -22 -7 -21 -8 12 -16 19 -5 47 -12 63 -15 15 -3 27 -9 27 -15 0 -5 6 -8
13 -7 6 1 21 -2 32 -6 11 -4 41 -16 67 -26 117 -45 367 -186 415 -235 8 -8 17
-14 21 -14 4 0 19 -10 34 -23 59 -50 68 -57 72 -57 13 0 277 -257 336 -326 14
-16 50 -58 80 -94 30 -36 57 -67 60 -70 3 -3 18 -23 35 -45 16 -22 31 -42 34
-45 19 -17 81 -100 81 -108 0 -6 4 -12 8 -14 11 -4 187 -250 302 -423 52 -77
96 -142 99 -145 3 -3 17 -26 31 -52 13 -27 28 -48 32 -48 5 0 8 -4 8 -10 0 -5
18 -38 40 -72 22 -35 40 -69 40 -75 0 -7 3 -13 8 -13 4 0 18 -21 32 -47 13
-27 35 -65 47 -85 13 -21 21 -38 19 -38 -3 0 9 -26 27 -57 18 -32 37 -69 43
-83 6 -14 23 -51 38 -82 14 -31 26 -64 26 -72 0 -9 4 -16 9 -16 5 0 12 -12 16
-27 3 -15 15 -46 26 -70 10 -23 19 -47 19 -52 0 -6 12 -45 26 -88 14 -43 28
-84 30 -93 2 -8 8 -35 15 -60 22 -90 30 -133 46 -255 9 -70 9 -286 0 -370 -6
-55 -38 -200 -60 -270 -15 -49 -24 -72 -60 -152 -22 -51 -44 -93 -49 -93 -5 0
-6 -4 -3 -10 3 -5 1 -10 -6 -10 -7 0 -9 -3 -6 -6 4 -4 -1 -19 -11 -33 -9 -14
-22 -35 -29 -46 -7 -11 -27 -44 -45 -73 -18 -30 -38 -61 -43 -70 -6 -10 -24
-37 -40 -62 -54 -82 -125 -203 -125 -212 0 -4 -4 -8 -10 -8 -5 0 -10 -9 -10
-20 0 -11 -4 -20 -8 -20 -8 0 -45 -77 -65 -135 -5 -16 -13 -34 -17 -40 -6 -8
-15 -39 -25 -85 -1 -3 -4 -14 -8 -25 -15 -47 -28 -141 -31 -221 -4 -116 40
-290 87 -344 8 -10 14 -20 11 -22 -2 -3 22 -31 54 -64 55 -57 84 -78 297 -216
55 -36 122 -87 148 -114 43 -44 111 -136 112 -153 1 -3 6 -15 12 -26 32 -59
47 -143 47 -265 0 -116 -2 -141 -19 -225 -8 -41 -46 -168 -53 -180 -4 -5 -8
-19 -9 -29 -2 -11 -8 -25 -13 -31 -5 -7 -7 -15 -3 -18 3 -4 1 -7 -5 -7 -7 0
-11 -3 -10 -7 5 -26 -178 -370 -219 -411 -7 -7 -13 -20 -13 -28 0 -8 -3 -14
-8 -14 -4 0 -23 -26 -41 -57 -19 -32 -37 -60 -40 -63 -8 -7 -29 -41 -38 -60
-4 -8 -17 -32 -31 -54 -35 -57 -145 -279 -145 -293 0 -7 -5 -13 -10 -13 -6 0
-7 -3 -4 -7 4 -3 2 -12 -4 -20 -6 -7 -9 -13 -6 -13 3 0 0 -12 -8 -27 -8 -15
-12 -30 -9 -35 3 -4 0 -8 -7 -8 -7 0 -10 -3 -6 -6 3 -4 0 -22 -8 -40 -8 -19
-12 -34 -10 -34 3 0 1 -10 -4 -23 -16 -41 -25 -120 -25 -222 0 -105 5 -154 22
-195 5 -14 11 -29 12 -35 12 -46 28 -81 71 -146 75 -112 200 -213 362 -291 26
-13 47 -26 47 -30 0 -5 6 -8 13 -8 7 0 55 -22 107 -50 52 -27 98 -50 102 -50
4 0 8 -5 8 -12 0 -6 3 -9 6 -5 3 3 11 2 18 -4 6 -5 38 -27 71 -49 33 -22 84
-63 113 -92 59 -58 135 -162 125 -172 -4 -3 0 -6 7 -6 7 0 10 -3 7 -7 -4 -3
-3 -11 2 -17 5 -6 19 -40 31 -76 17 -49 23 -95 26 -190 3 -130 -8 -205 -44
-300 -9 -25 -16 -48 -14 -52 1 -5 -2 -8 -6 -8 -8 0 -32 -43 -32 -57 0 -3 14
-3 30 -1 26 4 36 -1 63 -35 36 -45 96 -102 129 -125 13 -9 25 -18 28 -21 26
-29 191 -93 280 -109 92 -17 245 -9 335 18 44 13 82 26 85 29 3 3 25 16 50 28
62 30 153 114 200 184 22 32 40 62 40 67 0 5 7 15 15 22 8 7 14 18 13 24 -1 6
3 21 10 32 6 12 14 36 17 54 3 18 8 37 11 42 19 31 27 223 13 303 -24 131 -63
218 -144 323 -21 27 -84 84 -136 123 -53 39 -202 129 -214 129 -4 0 -21 10
-38 22 -18 13 -33 22 -35 20 -5 -6 -178 88 -258 141 -113 74 -205 172 -254
267 -49 97 -63 159 -66 290 -4 140 13 235 68 394 28 80 152 344 168 356 4 3
13 20 21 37 8 18 17 33 21 33 5 0 8 7 8 15 0 8 5 15 10 15 6 0 10 6 10 13 0 8
9 24 20 37 11 13 20 27 20 31 0 4 6 14 14 21 7 8 21 28 29 45 9 17 22 37 30
45 29 30 223 391 231 431 2 7 9 26 15 42 7 17 14 37 16 45 2 8 4 16 5 18 2 1
4 7 5 12 1 6 4 13 5 18 2 4 4 12 5 17 1 6 5 17 8 25 4 8 15 58 25 110 19 95
22 242 7 325 -20 113 -90 240 -175 318 -60 55 -99 87 -105 87 -3 0 -63 38
-134 84 -190 124 -255 195 -316 351 -26 65 -38 252 -23 345 24 147 111 380
163 440 8 8 14 18 14 23 0 4 16 32 36 62 19 31 35 57 35 60 0 7 64 99 75 107
6 4 7 8 3 8 -4 0 14 33 41 73 26 39 51 79 55 87 4 8 12 24 19 35 28 44 61 110
59 118 -1 4 3 7 9 7 5 0 7 5 4 10 -3 6 -1 10 6 10 7 0 9 3 6 7 -4 3 -3 11 2
17 12 15 67 173 85 244 25 101 38 207 39 332 1 95 -9 247 -17 272 -3 7 -7 29
-10 48 -13 94 -63 284 -87 335 -6 11 -11 30 -12 43 0 12 -5 22 -10 22 -5 0 -7
7 -3 15 3 8 1 15 -4 15 -6 0 -9 3 -8 8 1 4 -6 25 -16 47 -10 22 -19 45 -20 50
-9 33 -172 373 -186 385 -3 3 -14 21 -24 40 -11 19 -29 53 -41 75 -12 22 -55
92 -95 155 -40 63 -78 124 -84 135 -6 11 -13 22 -16 25 -10 9 -130 190 -130
195 0 3 -7 13 -16 23 -21 22 -136 184 -175 245 -17 26 -35 47 -40 47 -5 0 -9
5 -9 11 0 6 -6 16 -12 24 -7 7 -22 25 -33 41 -11 15 -28 36 -37 46 -10 10 -15
18 -10 18 4 0 2 4 -4 8 -5 4 -34 36 -63 71 -29 35 -58 70 -64 76 -7 7 -32 36
-56 64 -59 70 -192 203 -270 271 -35 30 -69 60 -75 65 -46 41 -160 121 -286
201 -49 31 -257 129 -305 144 -22 7 -44 15 -50 19 -5 3 -14 7 -20 8 -5 1 -31
8 -57 14 -27 7 -48 16 -48 21 0 5 -4 7 -8 4 -5 -3 -35 2 -68 11 -32 9 -67 16
-76 15 -10 0 -18 4 -18 9 0 6 -4 8 -8 5 -4 -2 -50 2 -102 11 -87 13 -491 29
-501 19z"/>
<path d="M6293 2772 c-46 -2 -63 -7 -64 -17 -1 -8 -2 -18 -3 -22 -1 -5 -6 -24
-10 -43 -33 -154 -106 -353 -184 -501 -49 -94 -121 -215 -151 -255 -9 -12 -23
-32 -31 -44 -63 -95 -197 -256 -302 -364 -38 -39 -68 -73 -68 -77 0 -4 -4 -9
-9 -11 -5 -1 -42 -34 -83 -73 -108 -102 -198 -182 -283 -250 -72 -58 -94 -77
-129 -107 -17 -16 -33 -28 -37 -28 -4 0 -35 -22 -70 -50 -35 -27 -68 -53 -74
-58 -106 -82 -443 -262 -519 -276 -11 -2 -33 -9 -48 -15 -16 -6 -28 -8 -28 -5
0 4 -7 0 -17 -7 -9 -8 -17 -12 -17 -11 -1 2 -19 0 -41 -4 -51 -10 -54 -11 -57
-13 -2 -2 -21 -5 -43 -7 -95 -12 -41 -19 143 -21 108 0 253 -4 322 -8 149 -8
463 -8 540 0 30 3 71 7 90 9 33 3 139 18 150 21 3 1 23 5 45 9 106 21 371 116
414 150 7 5 20 11 28 12 8 2 23 10 32 18 10 9 23 16 29 16 7 0 12 4 12 8 0 5
12 14 26 21 43 19 184 114 184 123 0 4 3 7 8 6 4 -2 14 3 22 10 8 7 49 38 90
69 41 30 89 68 105 84 17 16 34 29 38 29 4 0 15 8 25 17 23 23 95 86 151 132
58 46 355 344 403 402 20 24 45 54 55 66 11 12 28 34 39 48 10 15 29 39 42 53
28 32 161 231 192 287 48 84 118 233 144 305 15 41 30 82 33 90 4 8 7 18 8 23
2 4 3 8 5 10 1 1 3 9 5 17 14 55 46 189 50 208 5 21 3 22 -62 22 -38 0 -286 2
-553 3 -267 1 -513 1 -547 -1z"/>
<path d="M3235 510 c-5 -8 99 -12 290 -12 203 -1 304 3 309 11 2 3 -131 6
-296 6 -165 0 -301 -2 -303 -5z"/>
<path d="M7570 295 c0 -18 72 -95 134 -143 50 -39 143 -93 166 -97 3 -1 37
-11 75 -24 91 -29 259 -36 360 -14 91 19 217 79 280 134 54 47 130 138 121
146 -2 3 -53 5 -113 4 -146 -1 -121 -1 -373 -1 -124 0 -229 0 -235 0 -5 0
-101 1 -213 2 -130 2 -202 -1 -202 -7z"/>
</g>
</svg>
