<svg width="42" height="30" viewBox="0 0 42 30" fill="none" xmlns="http://www.w3.org/2000/svg">
<g clip-path="url(#clip0)">
<path d="M31.435 29.1296C32.0347 30.0571 33.4519 30.2896 34.3077 29.601C35.163 28.9124 35.2676 27.4545 34.5196 26.6462C33.8335 25.905 32.658 25.7504 32.0668 24.9289C31.2221 23.7552 32.0748 22.1405 32.874 20.9341C33.6732 19.7278 34.3914 17.9902 33.3856 16.9561C32.9991 16.559 32.4301 16.3799 32.0668 15.9606C31.4982 15.3041 31.6166 14.2751 31.9888 13.4863C32.3615 12.6975 32.9443 12.0206 33.2667 11.2092C34.1732 8.9248 32.8014 6.4115 31.4234 4.38645C30.5075 3.04049 29.5253 1.67549 28.1428 0.83954C25.9357 -0.494629 22.9673 -0.176387 20.8831 1.35045C18.7989 2.87729 17.5834 5.45224 17.3768 8.05802C17.2989 9.0404 17.3429 10.0717 16.9182 10.9576C16.1163 12.629 13.8015 13.4718 13.7039 15.3291C13.6407 16.5336 14.5949 17.5391 14.8634 18.7137C15.1456 19.9477 14.565 21.3353 13.4951 21.9832C12.8224 22.3903 11.9857 22.5312 11.4278 23.0902C10.6513 23.8686 10.7146 25.22 11.2738 26.1724C11.833 27.1244 12.7698 27.7709 13.6772 28.3856H10.1887C9.28176 27.7705 8.34497 27.1244 7.78529 26.1724C7.22607 25.2204 7.16284 23.8686 7.93935 23.0902C8.49724 22.5312 9.33386 22.3907 10.0066 21.9832C11.0765 21.3353 11.6571 19.9481 11.3749 18.7137C11.1064 17.5391 10.1522 16.5336 10.2154 15.3291C10.313 13.4718 12.6278 12.629 13.4297 10.9576C13.8544 10.0717 13.8104 9.04085 13.8883 8.05802C14.0953 5.45269 15.3108 2.87729 17.3946 1.35045C19.4783 -0.176387 22.4468 -0.494629 24.6543 0.839994C26.0368 1.67595 27.019 3.04094 27.9349 4.3869C29.3129 6.41195 30.6847 8.9257 29.7782 11.2096C29.4563 12.0211 28.873 12.6979 28.5003 13.4867C28.1277 14.2755 28.0092 15.3046 28.5783 15.961C28.9416 16.3804 29.5106 16.5594 29.8971 16.9566C30.9029 17.9902 30.1847 19.7283 29.3855 20.9346C28.5863 22.1409 27.7336 23.7557 28.5783 24.9294C29.1695 25.7508 30.345 25.9054 31.0311 26.6466C31.7791 27.4545 31.6745 28.9129 30.8192 29.6015C29.9639 30.2901 28.5462 30.0575 27.9465 29.13H31.435V29.1296Z" fill="#CEB4FF"/>
<path d="M18.7483 28.5166C19.8859 28.5855 21.0591 28.6499 22.1348 28.2664C22.914 27.9885 23.5974 27.4898 24.2417 26.9644C25.825 25.6742 27.3219 24.0449 27.6554 22.0081H24.1669C23.8334 24.0449 22.3369 25.6742 20.7532 26.9644C20.1085 27.4898 19.4255 27.9885 18.6463 28.2664C17.5706 28.6499 16.3974 28.5855 15.2598 28.5166H18.7483Z" fill="#CEB4FF"/>
</g>
<defs>
<clipPath id="clip0">
<rect width="42" height="30" fill="white"/>
</clipPath>
</defs>
</svg>