<svg width="88" height="41" viewBox="0 0 88 41" fill="none" xmlns="http://www.w3.org/2000/svg">
<path fill-rule="evenodd" clip-rule="evenodd" d="M5.01134 15.2221L0.220492 20.0472C-0.0734992 20.3433 -0.0734992 20.8234 0.220492 21.1195L5.01134 25.9446C5.30533 26.2407 5.78198 26.2407 6.07597 25.9446C6.36996 25.6485 6.36996 25.1684 6.07597 24.8723L2.57025 21.3415H67V19.8251H2.57025L6.07597 16.2943C6.36996 15.9982 6.36996 15.5182 6.07597 15.2221C5.78198 14.926 5.30533 14.926 5.01134 15.2221Z" fill="#0E0E0E"/>
<path d="M78 0.41186L78 5.48786C78 6.63986 78.948 7.58786 80.1 7.58786L81.252 7.58786C81.804 7.58786 82.296 7.38386 82.668 7.03586C83.04 7.38386 83.544 7.58786 84.084 7.58786L85.224 7.58786C86.376 7.58786 87.324 6.63986 87.324 5.48786L87.324 0.41186L78 0.41186ZM83.376 1.79186L85.92 1.79186L85.92 5.48786C85.92 5.85986 85.608 6.18386 85.224 6.18386L84.084 6.18386C83.7 6.18386 83.376 5.85986 83.376 5.48786L83.376 1.79186ZM79.404 1.79186L81.96 1.79186L81.96 5.48786C81.96 5.85986 81.636 6.18386 81.252 6.18386L80.1 6.18386C79.716 6.18386 79.404 5.85986 79.404 5.48786L79.404 1.79186ZM78.012 19.4906L87.336 16.2146L87.336 14.5106L78.012 11.2346L78.012 12.6146L80.436 13.4666C80.16 13.9706 79.992 14.6306 79.992 15.3626C79.992 16.0946 80.16 16.7546 80.436 17.2586L78.012 18.1106L78.012 19.4906ZM81.42 15.3626C81.42 14.8346 81.504 14.3306 81.66 13.8986L85.812 15.3626L81.66 16.8266C81.504 16.3946 81.42 15.8906 81.42 15.3626ZM78 25.787L78 26.663C78 28.223 79.152 29.531 80.64 29.783L80.64 28.355C80.376 28.271 80.124 28.115 79.908 27.911C79.584 27.575 79.392 27.131 79.392 26.663L79.392 25.787C79.392 25.319 79.584 24.875 79.908 24.539C80.244 24.215 80.688 24.023 81.156 24.023L84.168 24.023C84.636 24.023 85.08 24.215 85.416 24.539C85.74 24.875 85.932 25.319 85.932 25.787L85.932 26.663C85.932 27.131 85.74 27.575 85.416 27.911C85.188 28.127 84.924 28.283 84.636 28.355L84.636 29.783C86.16 29.555 87.324 28.235 87.324 26.663L87.324 25.787C87.324 24.047 85.908 22.631 84.168 22.631L81.156 22.631C79.416 22.631 78 24.047 78 25.787ZM78 33.988L78 35.368L82.008 35.368L82.008 36.928L77.988 39.076L77.988 40.588L82.632 38.032L87.324 40.588L87.324 39.076L83.376 36.928L83.376 35.368L87.324 35.368L87.324 33.988L78 33.988Z" fill="#0E0E0E"/>
</svg>