<svg width="260" height="260" viewBox="0 0 260 260" fill="none" xmlns="http://www.w3.org/2000/svg">
<g clip-path="url(#clip0)">
<rect width="260" height="260" fill="white"/>
<rect width="260" height="260" fill="#FF8F66"/>
<path d="M220.081 252.458C225.365 260.497 237.85 262.512 245.389 256.544C252.924 250.576 253.845 237.941 247.256 230.936C241.211 224.512 230.856 223.172 225.647 216.053C218.206 205.881 225.718 191.886 232.759 181.431C239.799 170.976 246.126 155.917 237.265 146.955C233.861 143.513 228.848 141.961 225.647 138.327C220.638 132.638 221.682 123.719 224.961 116.883C228.244 110.047 233.378 104.181 236.218 97.1481C244.204 77.3503 232.119 55.5684 219.979 38.018C211.911 26.353 203.258 14.523 191.079 7.27813C171.636 -4.28467 145.485 -1.52657 127.124 11.706C108.764 24.9386 98.0555 47.2548 96.2356 69.8382C95.5491 78.3522 95.9375 87.2905 92.1955 94.9676C85.1312 109.454 64.7387 116.757 63.8797 132.854C63.3227 143.293 71.7284 152.008 74.0936 162.187C76.5804 172.882 71.4656 184.908 62.0401 190.523C56.1133 194.051 48.7432 195.273 43.8284 200.117C36.9877 206.863 37.5447 218.575 42.4712 226.83C47.3978 235.081 55.6505 240.683 63.6443 246.011H32.9123C24.9224 240.679 16.6697 235.081 11.7392 226.83C6.81271 218.579 6.25572 206.863 13.0964 200.117C18.0112 195.273 25.3813 194.055 31.3081 190.523C40.7336 184.908 45.8484 172.886 43.3616 162.187C40.9964 152.008 32.5907 143.293 33.1477 132.854C34.0067 116.757 54.3992 109.454 61.4635 94.9676C65.2055 87.2905 64.8171 78.3561 65.5036 69.8382C67.3275 47.2588 78.0356 24.9386 96.3925 11.706C114.749 -1.52657 140.9 -4.28467 160.347 7.28206C172.526 14.527 181.179 26.3569 189.247 38.0219C201.387 55.5724 213.472 77.3582 205.486 97.1521C202.65 104.185 197.512 110.051 194.229 116.887C190.946 123.723 189.902 132.642 194.915 138.331C198.116 141.965 203.129 143.517 206.533 146.959C215.394 155.917 209.067 170.98 202.027 181.435C194.986 191.89 187.474 205.885 194.915 216.057C200.124 223.176 210.479 224.516 216.524 230.939C223.113 237.941 222.192 250.58 214.657 256.548C207.122 262.516 194.633 260.501 189.349 252.462H220.081V252.458Z" fill="#0000FF"/>
<path d="M108.317 247.146C118.338 247.743 128.674 248.301 138.15 244.977C145.015 242.569 151.036 238.247 156.711 233.694C170.659 222.512 183.846 208.391 186.784 190.739H156.052C153.114 208.391 139.931 222.512 125.979 233.694C120.3 238.247 114.283 242.569 107.418 244.977C97.942 248.301 87.6064 247.743 77.5847 247.146H108.317Z" fill="#0000FF"/>
</g>
<defs>
<clipPath id="clip0">
<rect width="260" height="260" fill="white"/>
</clipPath>
</defs>
</svg>
